<svg width="356" height="345" viewBox="0 0 356 345" fill="none" xmlns="http://www.w3.org/2000/svg">
<rect width="356" height="345" fill="white"/>
<rect x="37" y="50" width="210" height="245" rx="14" stroke="black" stroke-width="8"/>
<rect x="86" y="94" width="135" height="12" rx="5" fill="black"/>
<rect x="86" y="239" width="135" height="12" rx="5" fill="black"/>
<rect x="86" y="191" width="135" height="12" rx="5" fill="black"/>
<rect x="86" y="142" width="135" height="12" rx="5" fill="black"/>
<circle cx="66" cy="100" r="7" fill="#1E1E1E"/>
<circle cx="66" cy="245" r="7" fill="#1E1E1E"/>
<circle cx="66" cy="197" r="7" fill="#1E1E1E"/>
<circle cx="66" cy="148" r="7" fill="#1E1E1E"/>
<path d="M283 90C283 82.268 289.268 76 297 76V76C304.732 76 311 82.268 311 90V249C311 250.657 309.657 252 308 252H286C284.343 252 283 250.657 283 249V90Z" fill="black"/>
<path d="M297.809 268.887C297.409 269.437 296.591 269.437 296.191 268.887L283.432 251.338C282.952 250.677 283.424 249.75 284.241 249.75H309.759C310.576 249.75 311.048 250.677 310.568 251.338L297.809 268.887Z" fill="black"/>
<circle cx="297" cy="276.3" r="7" fill="black"/>
</svg>
